<svg width="1440" height="1047" viewBox="0 0 1440 1047" fill="none" xmlns="http://www.w3.org/2000/svg">
<g id="blob1" clip-path="url(#clip0_22_26)">
<g id="botGroup">
<path id="botb" d="M920.8 1047C923.36 967.777 925.92 888.729 960.32 830.271C994.72 771.988 1060.96 734.296 1112.96 690.322C1165.12 646.523 1202.88 596.092 1255.04 560.145C1307.2 524.198 1373.6 502.385 1440 480.747V1047H920.8Z" fill="#FBAE3C"/>
</g>
<g id="topGroup">
<path id="topb" d="M519.2 0C518.56 80.7935 517.92 161.587 479.68 216.729C441.44 271.871 365.44 301.362 311.2 339.402C256.8 377.269 224 423.512 175.68 462.774C127.52 501.862 63.68 534.145 0 566.253V0H519.2Z" fill="#FBAE3C"/>
</g>
</g>
<defs>
<clipPath id="clip0_22_26">
<rect width="1440" height="1047" fill="white"/>
</clipPath>
</defs>
</svg>
